<?xml version="1.0" standalone="no"?><!DOCTYPE svg PUBLIC "-//W3C//DTD SVG 1.1//EN" "http://www.w3.org/Graphics/SVG/1.1/DTD/svg11.dtd"><svg t="1756257453861" class="icon" viewBox="0 0 1024 1024" version="1.1" xmlns="http://www.w3.org/2000/svg" p-id="4735" xmlns:xlink="http://www.w3.org/1999/xlink" width="200" height="200"><path d="M819.2 903.49568h-61.35808v60.35456H819.2v-60.35456zM819.2 843.3664h-61.35808v60.12928H819.2V843.3664zM819.2 783.19616h-61.35808v60.14976H819.2v-60.14976zM819.2 722.82112h-61.35808v60.35456H819.2v-60.35456z" fill="#000000" p-id="4736"></path><path d="M819.2 662.69184h-61.35808v60.14976H819.2v-60.14976zM819.2 602.3168h-61.35808v60.37504H819.2V602.3168zM819.2 542.16704h-61.35808v60.14976H819.2v-60.14976z" fill="#000000" p-id="4737"></path><path d="M819.2 482.03776h-61.35808v60.14976H819.2v-60.14976zM819.2 421.6832h-61.35808v60.33408H819.2V421.6832zM819.2 361.51296h-61.35808v60.17024H819.2v-60.17024zM819.2 301.1584h-61.35808v60.35456H819.2v-60.35456zM819.2 241.00864h-61.35808v60.14976H819.2v-60.14976zM819.2 180.85888h-61.35808v60.14976H819.2V180.85888zM819.2 120.50432h-61.35808V180.8384H819.2V120.50432zM819.2 60.35456h-61.35808v60.14976H819.2V60.35456zM819.2 0h-61.35808v60.35456H819.2V0zM757.84192 963.85024h-61.56288V1024h61.56288v-60.14976z" fill="#000000" p-id="4738"></path><path d="M757.84192 903.49568h-61.56288v60.35456h61.56288v-60.35456zM757.84192 843.3664h-61.56288v60.12928h61.56288V843.3664zM757.84192 783.19616h-61.56288v60.14976h61.56288v-60.14976zM757.84192 722.82112h-61.56288v60.35456h61.56288v-60.35456z" fill="#57A4FF" p-id="4739"></path><path d="M757.84192 662.69184h-61.56288v60.14976h61.56288v-60.14976zM757.84192 602.3168h-61.56288v60.37504h61.56288V602.3168zM757.84192 542.16704h-61.56288v60.14976h61.56288v-60.14976z" fill="#57A4FF" p-id="4740"></path><path d="M757.84192 482.03776h-61.56288v60.14976h61.56288v-60.14976zM757.84192 421.6832h-61.56288v60.33408h61.56288V421.6832zM757.84192 361.51296h-61.56288v60.17024h61.56288v-60.17024zM757.84192 301.1584h-61.56288v60.35456h61.56288v-60.35456zM757.84192 241.00864h-61.56288v60.14976h61.56288v-60.14976z" fill="#57A4FF" p-id="4741"></path><path d="M757.84192 180.85888h-61.56288v60.14976h61.56288V180.85888zM757.84192 120.50432h-61.56288V180.8384h61.56288V120.50432zM757.84192 60.35456h-61.56288v60.14976h61.56288V60.35456z" fill="#D1E7F8" p-id="4742"></path><path d="M757.84192 0h-61.56288v60.35456h61.56288V0zM696.27904 963.85024h-61.35808V1024h61.35808v-60.14976z" fill="#000000" p-id="4743"></path><path d="M696.27904 903.49568h-61.35808v60.35456h61.35808v-60.35456zM696.27904 843.3664h-61.35808v60.12928h61.35808V843.3664zM696.27904 783.19616h-61.35808v60.14976h61.35808v-60.14976zM696.27904 722.82112h-61.35808v60.35456h61.35808v-60.35456z" fill="#57A4FF" p-id="4744"></path><path d="M696.27904 662.69184h-61.35808v60.14976h61.35808v-60.14976zM696.27904 602.3168h-61.35808v60.37504h61.35808V602.3168zM696.27904 542.16704h-61.35808v60.14976h61.35808v-60.14976z" fill="#57A4FF" p-id="4745"></path><path d="M696.27904 482.03776h-61.35808v60.14976h61.35808v-60.14976zM696.27904 421.6832h-61.35808v60.33408h61.35808V421.6832zM696.27904 361.51296h-61.35808v60.17024h61.35808v-60.17024zM696.27904 301.1584h-61.35808v60.35456h61.35808v-60.35456zM696.27904 241.00864h-61.35808v60.14976h61.35808v-60.14976z" fill="#57A4FF" p-id="4746"></path><path d="M696.27904 180.85888h-61.35808v60.14976h61.35808V180.85888zM696.27904 120.50432h-61.35808V180.8384h61.35808V120.50432zM696.27904 60.35456h-61.35808v60.14976h61.35808V60.35456z" fill="#D1E7F8" p-id="4747"></path><path d="M696.27904 0h-61.35808v60.35456h61.35808V0zM634.92096 963.85024h-61.56288V1024h61.56288v-60.14976z" fill="#000000" p-id="4748"></path><path d="M634.92096 903.49568h-61.56288v60.35456h61.56288v-60.35456zM634.92096 843.3664h-61.56288v60.12928h61.56288V843.3664zM634.92096 783.19616h-61.56288v60.14976h61.56288v-60.14976zM634.92096 722.82112h-61.56288v60.35456h61.56288v-60.35456z" fill="#57A4FF" p-id="4749"></path><path d="M634.92096 662.69184h-61.56288v60.14976h61.56288v-60.14976zM634.92096 602.3168h-61.56288v60.37504h61.56288V602.3168zM634.92096 542.16704h-61.56288v60.14976h61.56288v-60.14976z" fill="#57A4FF" p-id="4750"></path><path d="M634.92096 482.03776h-61.56288v60.14976h61.56288v-60.14976zM634.92096 421.6832h-61.56288v60.33408h61.56288V421.6832zM634.92096 361.51296h-61.56288v60.17024h61.56288v-60.17024zM634.92096 301.1584h-61.56288v60.35456h61.56288v-60.35456zM634.92096 241.00864h-61.56288v60.14976h61.56288v-60.14976z" fill="#57A4FF" p-id="4751"></path><path d="M634.92096 180.85888h-61.56288v60.14976h61.56288V180.85888zM634.92096 120.50432h-61.56288V180.8384h61.56288V120.50432zM634.92096 60.35456h-61.56288v60.14976h61.56288V60.35456z" fill="#D1E7F8" p-id="4752"></path><path d="M634.92096 0h-61.56288v60.35456h61.56288V0zM573.35808 963.85024H512V1024h61.35808v-60.14976z" fill="#000000" p-id="4753"></path><path d="M573.35808 903.49568H512v60.35456h61.35808v-60.35456zM573.35808 843.3664H512v60.12928h61.35808V843.3664zM573.35808 783.19616H512v60.14976h61.35808v-60.14976zM573.35808 722.82112H512v60.35456h61.35808v-60.35456z" fill="#57A4FF" p-id="4754"></path><path d="M573.35808 662.69184H512v60.14976h61.35808v-60.14976zM573.35808 602.3168H512v60.37504h61.35808V602.3168zM573.35808 542.16704H512v60.14976h61.35808v-60.14976z" fill="#57A4FF" p-id="4755"></path><path d="M573.35808 482.03776H512v60.14976h61.35808v-60.14976zM573.35808 421.6832H512v60.33408h61.35808V421.6832zM573.35808 361.51296H512v60.17024h61.35808v-60.17024zM573.35808 301.1584H512v60.35456h61.35808v-60.35456zM573.35808 241.00864H512v60.14976h61.35808v-60.14976z" fill="#57A4FF" p-id="4756"></path><path d="M573.35808 180.85888H512v60.14976h61.35808V180.85888zM573.35808 120.50432H512V180.8384h61.35808V120.50432zM573.35808 60.35456H512v60.14976h61.35808V60.35456z" fill="#D1E7F8" p-id="4757"></path><path d="M573.35808 0H512v60.35456h61.35808V0zM512 963.85024h-61.35808V1024H512v-60.14976z" fill="#000000" p-id="4758"></path><path d="M512 903.49568h-61.35808v60.35456H512v-60.35456zM512 843.3664h-61.35808v60.12928H512V843.3664zM512 783.19616h-61.35808v60.14976H512v-60.14976zM512 722.82112h-61.35808v60.35456H512v-60.35456z" fill="#57A4FF" p-id="4759"></path><path d="M512 662.69184h-61.35808v60.14976H512v-60.14976zM512 602.3168h-61.35808v60.37504H512V602.3168zM512 542.16704h-61.35808v60.14976H512v-60.14976z" fill="#57A4FF" p-id="4760"></path><path d="M512 482.03776h-61.35808v60.14976H512v-60.14976zM512 421.6832h-61.35808v60.33408H512V421.6832zM512 361.51296h-61.35808v60.17024H512v-60.17024zM512 301.1584h-61.35808v60.35456H512v-60.35456zM512 241.00864h-61.35808v60.14976H512v-60.14976z" fill="#57A4FF" p-id="4761"></path><path d="M512 180.85888h-61.35808v60.14976H512V180.85888zM512 120.50432h-61.35808V180.8384H512V120.50432zM512 60.35456h-61.35808v60.14976H512V60.35456z" fill="#D1E7F8" p-id="4762"></path><path d="M512 0h-61.35808v60.35456H512V0zM450.64192 963.85024h-61.56288V1024h61.56288v-60.14976z" fill="#000000" p-id="4763"></path><path d="M450.64192 903.49568h-61.56288v60.35456h61.56288v-60.35456zM450.64192 843.3664h-61.56288v60.12928h61.56288V843.3664zM450.64192 783.19616h-61.56288v60.14976h61.56288v-60.14976zM450.64192 722.82112h-61.56288v60.35456h61.56288v-60.35456z" fill="#57A4FF" p-id="4764"></path><path d="M450.64192 662.69184h-61.56288v60.14976h61.56288v-60.14976zM450.64192 602.3168h-61.56288v60.37504h61.56288V602.3168zM450.64192 542.16704h-61.56288v60.14976h61.56288v-60.14976z" fill="#57A4FF" p-id="4765"></path><path d="M450.64192 482.03776h-61.56288v60.14976h61.56288v-60.14976zM450.64192 421.6832h-61.56288v60.33408h61.56288V421.6832zM450.64192 361.51296h-61.56288v60.17024h61.56288v-60.17024zM450.64192 301.1584h-61.56288v60.35456h61.56288v-60.35456zM450.64192 241.00864h-61.56288v60.14976h61.56288v-60.14976z" fill="#57A4FF" p-id="4766"></path><path d="M450.64192 180.85888h-61.56288v60.14976h61.56288V180.85888zM450.64192 120.50432h-61.56288V180.8384h61.56288V120.50432zM450.64192 60.35456h-61.56288v60.14976h61.56288V60.35456z" fill="#D1E7F8" p-id="4767"></path><path d="M450.64192 0h-61.56288v60.35456h61.56288V0zM389.07904 963.85024h-61.35808V1024h61.35808v-60.14976z" fill="#000000" p-id="4768"></path><path d="M389.07904 903.49568h-61.35808v60.35456h61.35808v-60.35456z" fill="#57A4FF" p-id="4769"></path><path d="M389.07904 843.3664h-61.35808v60.12928h61.35808V843.3664zM389.07904 783.19616h-61.35808v60.14976h61.35808v-60.14976zM389.07904 722.82112h-61.35808v60.35456h61.35808v-60.35456z" fill="#FFFFFF" p-id="4770"></path><path d="M389.07904 662.69184h-61.35808v60.14976h61.35808v-60.14976zM389.07904 602.3168h-61.35808v60.37504h61.35808V602.3168z" fill="#57A4FF" p-id="4771"></path><path d="M389.07904 542.16704h-61.35808v60.14976h61.35808v-60.14976z" fill="#FFFFFF" p-id="4772"></path><path d="M389.07904 482.03776h-61.35808v60.14976h61.35808v-60.14976zM389.07904 421.6832h-61.35808v60.33408h61.35808V421.6832zM389.07904 361.51296h-61.35808v60.17024h61.35808v-60.17024zM389.07904 301.1584h-61.35808v60.35456h61.35808v-60.35456zM389.07904 241.00864h-61.35808v60.14976h61.35808v-60.14976z" fill="#57A4FF" p-id="4773"></path><path d="M389.07904 180.85888h-61.35808v60.14976h61.35808V180.85888zM389.07904 60.35456h-61.35808v60.14976h61.35808V60.35456z" fill="#D1E7F8" p-id="4774"></path><path d="M389.07904 0h-61.35808v60.35456h61.35808V0zM327.72096 963.85024h-61.56288V1024h61.56288v-60.14976z" fill="#000000" p-id="4775"></path><path d="M327.72096 903.49568h-61.56288v60.35456h61.56288v-60.35456zM327.72096 843.3664h-61.56288v60.12928h61.56288V843.3664zM327.72096 783.19616h-61.56288v60.14976h61.56288v-60.14976zM327.72096 722.82112h-61.56288v60.35456h61.56288v-60.35456z" fill="#57A4FF" p-id="4776"></path><path d="M327.72096 662.69184h-61.56288v60.14976h61.56288v-60.14976zM327.72096 602.3168h-61.56288v60.37504h61.56288V602.3168zM327.72096 542.16704h-61.56288v60.14976h61.56288v-60.14976z" fill="#57A4FF" p-id="4777"></path><path d="M327.72096 482.03776h-61.56288v60.14976h61.56288v-60.14976zM327.72096 421.6832h-61.56288v60.33408h61.56288V421.6832zM327.72096 361.51296h-61.56288v60.17024h61.56288v-60.17024zM327.72096 301.1584h-61.56288v60.35456h61.56288v-60.35456zM327.72096 241.00864h-61.56288v60.14976h61.56288v-60.14976z" fill="#57A4FF" p-id="4778"></path><path d="M327.72096 180.85888h-61.56288v60.14976h61.56288V180.85888zM327.72096 120.50432h-61.56288V180.8384h61.56288V120.50432zM327.72096 60.35456h-61.56288v60.14976h61.56288V60.35456z" fill="#D1E7F8" p-id="4779"></path><path d="M327.72096 0h-61.56288v60.35456h61.56288V0zM266.15808 903.49568H204.8v60.35456h61.35808v-60.35456zM266.15808 843.3664H204.8v60.12928h61.35808V843.3664zM266.15808 783.19616H204.8v60.14976h61.35808v-60.14976zM266.15808 722.82112H204.8v60.35456h61.35808v-60.35456z" fill="#000000" p-id="4780"></path><path d="M266.15808 662.69184H204.8v60.14976h61.35808v-60.14976zM266.15808 602.3168H204.8v60.37504h61.35808V602.3168zM266.15808 542.16704H204.8v60.14976h61.35808v-60.14976z" fill="#000000" p-id="4781"></path><path d="M266.15808 482.03776H204.8v60.14976h61.35808v-60.14976zM266.15808 421.6832H204.8v60.33408h61.35808V421.6832zM266.15808 361.51296H204.8v60.17024h61.35808v-60.17024zM266.15808 301.1584H204.8v60.35456h61.35808v-60.35456zM266.15808 241.00864H204.8v60.14976h61.35808v-60.14976zM266.15808 180.85888H204.8v60.14976h61.35808V180.85888zM266.15808 120.50432H204.8V180.8384h61.35808V120.50432zM266.15808 60.35456H204.8v60.14976h61.35808V60.35456zM266.15808 0H204.8v60.35456h61.35808V0z" fill="#000000" p-id="4782"></path></svg>