<?xml version="1.0" standalone="no"?><!DOCTYPE svg PUBLIC "-//W3C//DTD SVG 1.1//EN" "http://www.w3.org/Graphics/SVG/1.1/DTD/svg11.dtd"><svg t="1756257499496" class="icon" viewBox="0 0 1024 1024" version="1.1" xmlns="http://www.w3.org/2000/svg" p-id="6941" xmlns:xlink="http://www.w3.org/1999/xlink" width="200" height="200"><path d="M883.7 120.5l-32.7 291-55.9 497.6c-1.5 13-12.5 22.8-25.5 22.8H254.4c-13.1 0-24.1-9.8-25.5-22.8L173 411.6l-32.7-291c-1.7-15.2 10.2-28.5 25.5-28.5h692.4c15.3-0.1 27.2 13.2 25.5 28.4z" fill="#FEF8E6" p-id="6942"></path><path d="M285.1 872l-45-400.4h543.8l-45 400.4z" fill="#8ADCFF" p-id="6943"></path><path d="M769.6 942H254.4c-18.2 0-33.4-13.6-35.5-31.7L163 412.7l-32.7-291c-1.1-10.1 2.1-20.2 8.9-27.8C146 86.3 155.7 82 165.8 82h692.4c10.1 0 19.8 4.3 26.6 11.9s10 17.7 8.9 27.8l-32.7 291-55.9 497.6c-2.1 18.1-17.3 31.7-35.5 31.7zM165.8 102c-4.5 0-8.7 1.9-11.7 5.2-3 3.4-4.4 7.7-3.9 12.2l32.7 291L238.8 908c0.9 7.9 7.6 13.9 15.6 13.9h515.2c8 0 14.7-6 15.6-13.9l55.9-497.6 32.7-291.1c0.5-4.5-0.9-8.8-3.9-12.2-3-3.4-7.2-5.2-11.7-5.2H165.8v0.1z m717.9 18.5z" fill="#F7D59F" p-id="6944"></path><path d="M738.9 882H285.1c-5.1 0-9.4-3.8-9.9-8.9l-45-400.4c-0.3-2.8 0.6-5.7 2.5-7.8 1.9-2.1 4.6-3.3 7.5-3.3H784c2.8 0 5.6 1.2 7.5 3.3 1.9 2.1 2.8 5 2.5 7.8l-45 400.4c-0.7 5.1-5 8.9-10.1 8.9zM294 862h436l42.7-380.4H251.3L294 862z" fill="#00A4FF" p-id="6945"></path></svg>